<?xml version="1.0" encoding="UTF-8" standalone="no"?>
<svg
   width="355.89227"
   height="71.815071"
   viewBox="0 0 355.89229 71.815071"
   version="1.1"
   id="svg95"
   sodipodi:docname="nvim-ferris.svg"
   inkscape:version="1.2.2 (b0a8486541, 2022-12-01)"
   xmlns:inkscape="http://www.inkscape.org/namespaces/inkscape"
   xmlns:sodipodi="http://sodipodi.sourceforge.net/DTD/sodipodi-0.dtd"
   xmlns="http://www.w3.org/2000/svg"
   xmlns:svg="http://www.w3.org/2000/svg"
   xmlns:rdf="http://www.w3.org/1999/02/22-rdf-syntax-ns#"
   xmlns:cc="http://creativecommons.org/ns#"
   xmlns:dc="http://purl.org/dc/elements/1.1/"
   xmlns:serif="http://www.serif.com/"
   xmlns:sketch="http://www.bohemiancoding.com/sketch/ns">
  <sodipodi:namedview
     id="namedview97"
     pagecolor="#505050"
     bordercolor="#ffffff"
     borderopacity="1"
     inkscape:showpageshadow="0"
     inkscape:pageopacity="0"
     inkscape:pagecheckerboard="1"
     inkscape:deskcolor="#505050"
     showgrid="false"
     inkscape:zoom="1.2350055"
     inkscape:cx="82.185866"
     inkscape:cy="70.445028"
     inkscape:window-width="1920"
     inkscape:window-height="1080"
     inkscape:window-x="0"
     inkscape:window-y="0"
     inkscape:window-maximized="1"
     inkscape:current-layer="g8863" />
  <title
     id="title70">neovim-mark@2x</title>
  <description>Created with Sketch (http://www.bohemiancoding.com/sketch)</description>
  <defs
     id="defs87">
    <linearGradient
       x1="167.95833"
       y1="-0.46142399"
       x2="167.95833"
       y2="335.45523"
       id="linearGradient-1"
       gradientTransform="scale(0.46142398,2.1672042)"
       gradientUnits="userSpaceOnUse">
      <stop
         stop-color="#16B0ED"
         stop-opacity="0.800235524"
         offset="0%"
         id="stop72" />
      <stop
         stop-color="#0F59B2"
         stop-opacity="0.83700023"
         offset="100%"
         id="stop74" />
    </linearGradient>
    <linearGradient
       x1="1118.3427"
       y1="-0.46586797"
       x2="1118.3427"
       y2="338.68604"
       id="linearGradient-2"
       gradientTransform="scale(0.46586797,2.1465309)"
       gradientUnits="userSpaceOnUse">
      <stop
         stop-color="#7DB643"
         offset="0%"
         id="stop77" />
      <stop
         stop-color="#367533"
         offset="100%"
         id="stop79" />
    </linearGradient>
    <linearGradient
       x1="356.33795"
       y1="0"
       x2="356.33795"
       y2="612.90131"
       id="linearGradient-3"
       gradientTransform="scale(0.84189739,1.1877932)"
       gradientUnits="userSpaceOnUse">
      <stop
         stop-color="#88C649"
         stop-opacity="0.8"
         offset="0%"
         id="stop82" />
      <stop
         stop-color="#439240"
         stop-opacity="0.84"
         offset="100%"
         id="stop84" />
    </linearGradient>
    <linearGradient
       x1="49.021549"
       y1="-0.079835393"
       x2="49.021549"
       y2="97.845657"
       id="linearGradient-1-2"
       gradientTransform="scale(0.46153975,2.1666606)"
       gradientUnits="userSpaceOnUse">
      <stop
         stop-color="#16B0ED"
         stop-opacity="0.800235524"
         offset="0%"
         id="stop5136" />
      <stop
         stop-color="#0F59B2"
         stop-opacity="0.83700023"
         offset="100%"
         id="stop5138" />
    </linearGradient>
    <linearGradient
       x1="326.17365"
       y1="-0.069164939"
       x2="326.17365"
       y2="98.851547"
       id="linearGradient-2-2"
       gradientTransform="scale(0.46628455,2.1446132)"
       gradientUnits="userSpaceOnUse">
      <stop
         stop-color="#7DB643"
         offset="0%"
         id="stop5141" />
      <stop
         stop-color="#367533"
         offset="100%"
         id="stop5143" />
    </linearGradient>
    <linearGradient
       x1="103.88479"
       y1="-0.11508822"
       x2="103.88479"
       y2="178.55785"
       id="linearGradient-3-8"
       gradientTransform="scale(0.84203823,1.1875945)"
       gradientUnits="userSpaceOnUse">
      <stop
         stop-color="#88C649"
         stop-opacity="0.8"
         offset="0%"
         id="stop5146" />
      <stop
         stop-color="#439240"
         stop-opacity="0.84"
         offset="100%"
         id="stop5148" />
    </linearGradient>
    <linearGradient
       id="_Linear1"
       x1="0"
       y1="0"
       x2="1"
       y2="0"
       gradientUnits="userSpaceOnUse"
       gradientTransform="matrix(1,0,0,-1,0,-6.50515e-4)">
      <stop
         offset="0"
         style="stop-color:rgb(247,76,0);stop-opacity:1"
         id="stop505" />
      <stop
         offset="0.33"
         style="stop-color:rgb(247,76,0);stop-opacity:1"
         id="stop507" />
      <stop
         offset="1"
         style="stop-color:rgb(244,150,0);stop-opacity:1"
         id="stop509" />
    </linearGradient>
    <linearGradient
       id="_Linear2"
       x1="0"
       y1="0"
       x2="1"
       y2="0"
       gradientUnits="userSpaceOnUse"
       gradientTransform="matrix(1,0,0,-1,0,1.23438e-6)">
      <stop
         offset="0"
         style="stop-color:rgb(204,58,0);stop-opacity:1"
         id="stop512" />
      <stop
         offset="0.15"
         style="stop-color:rgb(204,58,0);stop-opacity:1"
         id="stop514" />
      <stop
         offset="0.74"
         style="stop-color:rgb(247,76,0);stop-opacity:1"
         id="stop516" />
      <stop
         offset="1"
         style="stop-color:rgb(247,76,0);stop-opacity:1"
         id="stop518" />
    </linearGradient>
    <linearGradient
       id="_Linear3"
       x1="0"
       y1="0"
       x2="1"
       y2="0"
       gradientUnits="userSpaceOnUse"
       gradientTransform="scale(1,-1)">
      <stop
         offset="0"
         style="stop-color:rgb(204,58,0);stop-opacity:1"
         id="stop521" />
      <stop
         offset="0.15"
         style="stop-color:rgb(204,58,0);stop-opacity:1"
         id="stop523" />
      <stop
         offset="0.74"
         style="stop-color:rgb(247,76,0);stop-opacity:1"
         id="stop525" />
      <stop
         offset="1"
         style="stop-color:rgb(247,76,0);stop-opacity:1"
         id="stop527" />
    </linearGradient>
  </defs>
  <metadata
     id="metadata14713">
    <rdf:RDF>
      <cc:Work
         rdf:about="">
        <dc:title>neovim-mark@2x</dc:title>
      </cc:Work>
    </rdf:RDF>
  </metadata>
  <g
     aria-label="haskell-tools.nvim"
     id="text4483"
     style="font-weight:bold;font-size:33.4748px;font-family:Lato;-inkscape-font-specification:'Lato Bold';fill:#1a1a1a;stroke-width:1.39478"
     transform="translate(63.549475,90.051194)">
    <g
       id="g5925"
       transform="matrix(1.6576683,0,0,1.6576683,-217.36825,0)">
      <g
         id="g8863"
         transform="matrix(0.81614217,0,0,0.81614217,-10.014267,-7.820178)">
        <g
           id="g8883"
           transform="matrix(1.1279055,0,0,1.1279055,-4.1519251,6.1388671)">
          <path
             d="m 252.62277,-20.020808 q 0,-0.643808 0.22845,-1.225312 0.24921,-0.581505 0.66458,-0.996865 0.41536,-0.415361 0.99686,-0.664577 0.5815,-0.249217 1.24608,-0.249217 0.66457,0 1.22531,0.249217 0.58151,0.249216 0.99687,0.664577 0.43612,0.41536 0.68534,0.996865 0.24922,0.581504 0.24922,1.225312 0,0.664577 -0.24922,1.246081 -0.24922,0.560737 -0.68534,0.976098 -0.41536,0.41536 -0.99687,0.643809 -0.56074,0.249215 -1.22531,0.249215 -0.66458,0 -1.24608,-0.249215 -0.5815,-0.228449 -0.99686,-0.643809 -0.41537,-0.415361 -0.66458,-0.976098 -0.22845,-0.581504 -0.22845,-1.246081 z"
             id="path5820"
             style="fill:#444444;fill-opacity:1;stroke-width:1.73066" />
          <path
             d="m 268.03262,-35.887575 q 0.64381,-0.64381 1.34992,-1.183778 0.72688,-0.560737 1.51606,-0.934561 0.80996,-0.394592 1.72374,-0.602273 0.9138,-0.228448 1.99373,-0.228448 1.74451,0 3.09443,0.602273 1.34994,0.581505 2.24295,1.661442 0.9138,1.059169 1.37069,2.554467 0.47767,1.474529 0.47767,3.260579 v 13.561518 h -5.12971 v -13.561518 q 0,-1.952194 -0.89301,-3.011363 -0.89303,-1.079937 -2.72061,-1.079937 -1.32917,0 -2.49217,0.602272 -1.16302,0.602273 -2.20142,1.640674 v 15.409872 h -5.12969 v -21.30799 h 3.13596 q 0.99688,0 1.30839,0.93456 z"
             id="path5822"
             style="fill:#444444;fill-opacity:1;stroke-width:1.73066" />
          <path
             d="m 305.39428,-38.504346 -8.45258,21.30799 h -4.65204 l -8.45258,-21.30799 h 4.23668 q 0.58149,0 0.95532,0.269984 0.3946,0.269984 0.5192,0.685345 l 4.11207,11.380875 q 0.33229,0.996865 0.5815,1.952195 0.24922,0.955328 0.43613,1.910657 0.20768,-0.955329 0.4569,-1.910657 0.24921,-0.95533 0.60227,-1.952195 l 4.19514,-11.380875 q 0.14537,-0.415361 0.51921,-0.685345 0.37382,-0.269984 0.89302,-0.269984 z"
             id="path5824"
             style="fill:#444444;fill-opacity:1;stroke-width:1.73066" />
          <path
             d="m 313.43149,-38.504346 v 21.30799 h -5.15046 v -21.30799 z m 0.70611,-6.209639 q 0,0.664577 -0.26998,1.246081 -0.26998,0.581505 -0.72688,1.017633 -0.43613,0.436129 -1.0384,0.706113 -0.60228,0.249216 -1.28762,0.249216 -0.66458,0 -1.26685,-0.249216 -0.5815,-0.269984 -1.01764,-0.706113 -0.43612,-0.436128 -0.70611,-1.017633 -0.24922,-0.581504 -0.24922,-1.246081 0,-0.685345 0.24922,-1.287617 0.26999,-0.602273 0.70611,-1.038401 0.43614,-0.436129 1.01764,-0.685345 0.60227,-0.269984 1.26685,-0.269984 0.68534,0 1.28762,0.269984 0.60227,0.249216 1.0384,0.685345 0.4569,0.436128 0.72688,1.038401 0.26998,0.602272 0.26998,1.287617 z"
             id="path5826"
             style="fill:#444444;fill-opacity:1;stroke-width:1.73066" />
          <path
             d="m 318.66503,-17.196356 v -21.30799 h 3.13597 q 0.99686,0 1.30838,0.93456 l 0.33229,1.578371 q 0.56073,-0.623041 1.16301,-1.142242 0.62304,-0.5192 1.30838,-0.893024 0.70611,-0.373825 1.49531,-0.581506 0.80994,-0.228448 1.76527,-0.228448 2.0145,0 3.30212,1.100705 1.30839,1.079938 1.9522,2.886756 0.49842,-1.05917 1.24607,-1.806818 0.74766,-0.768417 1.64068,-1.246082 0.89302,-0.477664 1.88989,-0.706113 1.01763,-0.228448 2.03526,-0.228448 1.76528,0 3.13597,0.539969 1.3707,0.539969 2.30525,1.57837 0.93457,1.038401 1.41224,2.533699 0.49842,1.495296 0.49842,3.426723 v 13.561518 h -5.12969 v -13.561518 q 0,-2.035267 -0.89303,-3.052899 -0.89303,-1.038401 -2.61677,-1.038401 -0.78919,0 -1.47453,0.269984 -0.66458,0.269984 -1.18378,0.789184 -0.49843,0.498433 -0.78918,1.26685 -0.29076,0.768416 -0.29076,1.765282 v 13.561518 h -5.15046 v -13.561518 q 0,-2.139107 -0.87226,-3.115203 -0.8515,-0.976097 -2.51294,-0.976097 -1.12147,0 -2.09757,0.560737 -0.95533,0.539968 -1.78604,1.495296 v 15.596785 z"
             id="path5828"
             style="fill:#444444;fill-opacity:1;stroke-width:1.73066" />
        </g>
      </g>
      <g
         id="g1499"
         transform="matrix(0.48590649,0,0,0.48590649,100.70822,16.362684)">
        <g
           id="Page-1"
           stroke="none"
           stroke-width="1"
           fill="none"
           fill-rule="evenodd"
           sketch:type="MSPage"
           transform="matrix(0.09185292,0,0,0.09293883,11.429095,-124.25314)">
          <g
             id="mark-copy"
             sketch:type="MSLayerGroup"
             transform="translate(2,3)">
            <path
               d="M 0,155.5704 155,-1 V 727 L 0,572.23792 Z"
               id="Left---green"
               fill="url(#linearGradient-1)"
               sketch:type="MSShapeGroup"
               style="fill:url(#linearGradient-1)" />
            <path
               d="M 443.0604,156.9824 600,-1 596.81879,727 442,572.21994 Z"
               id="Right---blue"
               fill="url(#linearGradient-2)"
               sketch:type="MSShapeGroup"
               transform="matrix(-1,0,0,1,1042,0)"
               style="fill:url(#linearGradient-2)" />
            <path
               d="M 154.98629,0 558,615.1897 445.2246,728 42,114.17202 Z"
               id="Cross---blue"
               fill="url(#linearGradient-3)"
               sketch:type="MSShapeGroup"
               style="fill:url(#linearGradient-3)" />
            <path
               d="M 155,283.83232 154.78675,308 31,124.71061 42.461949,113 Z"
               id="Shadow"
               fill-opacity="0.13"
               fill="#000000"
               sketch:type="MSShapeGroup" />
          </g>
        </g>
        <g
           id="Layer-1"
           serif:id="Layer 1"
           style="clip-rule:evenodd;fill-rule:evenodd;stroke-linejoin:round;stroke-miterlimit:1.41421"
           transform="matrix(0.03892676,-0.03670031,0.0362715,0.03938696,-32.156897,-117.82123)">
        <g
   transform="translate(597.344,637.02)"
   id="g458">
            <path
   d="m 0,-279.559 c -121.238,0 -231.39,14.576 -312.939,38.329 V -38.329 C -231.39,-14.575 -121.238,0 0,0 138.76,0 262.987,-19.092 346.431,-49.186 V -230.37 C 262.987,-260.465 138.76,-279.559 0,-279.559"
   style="fill:#a52b00;fill-rule:nonzero"
   id="path456" />

        </g>

        <g
   transform="translate(1068.75,575.642)"
   id="g462">
            <path
   d="m 0,-53.32 -14.211,-29.441 c 0.073,-1.118 0.131,-2.237 0.131,-3.36 0,-33.375 -34.706,-64.135 -93.097,-88.762 V 2.643 c 27.245,-11.492 49.348,-24.317 65.156,-38.125 -4.652,18.707 -20.564,56.553 -33.25,83.168 -20.85,38.066 -28.4,71.203 -27.432,72.844 0.617,1.033 7.73,-9.94 18.219,-27.721 C -60.074,58.028 -13.82,-8.373 -4.575,-25.287 5.897,-44.461 0,-53.32 0,-53.32"
   style="fill:#a52b00;fill-rule:nonzero"
   id="path460" />

        </g>

        <g
   transform="translate(149.064,591.421)"
   id="g466">
            <path
   d="m 0,-99.954 c 0,6.428 1.293,12.76 3.788,18.969 l -8.511,15.15 c 0,0 -6.818,8.846 5.188,27.508 10.59,16.455 63.635,80.867 91.632,114.598 12.026,17.293 20.179,27.945 20.893,26.916 1.124,-1.633 -7.476,-34.1 -31.359,-71.141 -11.144,-19.895 -24.454,-46.252 -32.442,-65.721 22.303,14.116 51.483,26.92 86.152,37.94 V -204.17 C 51.797,-177.622 0,-140.737 0,-99.954"
   style="fill:#a52b00;fill-rule:nonzero"
   id="path464" />

        </g>

        <g
   transform="matrix(-65.8097,-752.207,-752.207,65.8097,621.707,796.312)"
   id="g470">
            <path
   d="M 0.991,-0.034 0.933,0.008 c 0,0.006 0,0.012 0,0.018 L 0.99,0.069 C 0.996,0.073 0.999,0.08 0.998,0.087 0.997,0.094 0.992,0.1 0.986,0.103 L 0.92,0.133 C 0.919,0.139 0.918,0.145 0.916,0.15 L 0.964,0.203 C 0.968,0.208 0.97,0.216 0.968,0.222 0.965,0.229 0.96,0.234 0.953,0.236 L 0.882,0.254 C 0.88,0.259 0.877,0.264 0.875,0.27 L 0.91,0.33 c 0.004,0.006 0.004,0.014 0,0.02 C 0.907,0.356 0.9,0.36 0.893,0.361 L 0.82,0.365 C 0.817,0.369 0.813,0.374 0.81,0.379 L 0.832,0.445 C 0.835,0.452 0.833,0.459 0.828,0.465 0.824,0.47 0.816,0.473 0.809,0.472 L 0.737,0.462 C 0.733,0.466 0.729,0.47 0.724,0.474 l 0.009,0.07 C 0.734,0.551 0.731,0.558 0.725,0.562 0.719,0.566 0.711,0.568 0.704,0.565 L 0.636,0.542 C 0.631,0.546 0.626,0.549 0.621,0.552 L 0.615,0.621 c 0,0.008 -0.005,0.014 -0.011,0.017 -0.007,0.003 -0.015,0.003 -0.021,0 L 0.521,0.602 C 0.52,0.603 0.519,0.603 0.518,0.603 L 0.406,0.729 c 0,0 -0.012,0.018 -0.047,-0.004 C 0.329,0.705 0.206,0.599 0.141,0.543 0.109,0.52 0.089,0.504 0.09,0.502 0.093,0.499 0.149,0.509 0.217,0.554 0.278,0.588 0.371,0.631 0.38,0.619 c 0,0 0.016,-0.015 0.026,-0.044 0,0 0,0 0,0 10e-4,0.001 10e-4,0.001 0,0 0,0 -0.315,-0.551 -0.101,-1.106 C 0.311,-0.593 0.275,-0.627 0.275,-0.627 0.266,-0.639 0.178,-0.598 0.12,-0.566 0.055,-0.523 0.002,-0.513 0,-0.516 -0.001,-0.518 0.018,-0.533 0.049,-0.555 0.11,-0.608 0.227,-0.707 0.256,-0.726 0.289,-0.748 0.301,-0.73 0.301,-0.73 l 0.101,0.115 c 0.004,0.001 0.008,0.002 0.013,0.002 L 0.47,-0.658 c 0.005,-0.005 0.013,-0.006 0.02,-0.004 0.007,0.002 0.012,0.007 0.014,0.014 l 0.018,0.068 c 0.005,0.002 0.011,0.004 0.016,0.006 l 0.064,-0.034 c 0.006,-0.004 0.014,-0.004 0.021,0 0.006,0.003 0.01,0.009 0.01,0.016 l 0.004,0.07 c 0.005,0.003 0.01,0.007 0.015,0.01 l 0.069,-0.022 c 0.007,-0.002 0.015,-0.001 0.02,0.003 0.006,0.005 0.009,0.012 0.008,0.019 l -0.011,0.069 c 0.004,0.004 0.008,0.008 0.013,0.012 l 0.072,-0.008 c 0.007,-0.001 0.014,0.002 0.019,0.007 0.005,0.006 0.006,0.013 0.003,0.02 l -0.024,0.065 c 0.003,0.005 0.007,0.01 0.01,0.015 l 0.072,0.005 c 0.008,0 0.014,0.005 0.017,0.011 0.004,0.006 0.004,0.014 0,0.02 l -0.037,0.06 c 0.002,0.005 0.004,0.01 0.006,0.016 l 0.07,0.018 c 0.007,0.002 0.013,0.007 0.015,0.014 0.002,0.007 0,0.014 -0.005,0.02 L 0.92,-0.116 c 0.001,0.005 0.003,0.011 0.004,0.017 l 0.064,0.031 C 0.995,-0.065 0.999,-0.059 1,-0.052 1.001,-0.045 0.997,-0.038 0.991,-0.034 Z M 0.406,0.575 c 0,0 0,0 0,0 0,0 0,0 0,0 z"
   style="fill:url(#_Linear1);fill-rule:nonzero"
   id="path468" />

        </g>

        <g
   transform="translate(450.328,483.629)"
   id="g474">
            <path
   d="m 0,167.33 c -1.664,-1.42 -2.536,-2.262 -2.536,-2.262 L 140.006,153.391 C 23.733,0 -69.418,122.193 -79.333,135.855 v 31.475 z"
   style="fill-rule:nonzero"
   id="path472" />

        </g>

        <g
   transform="translate(747.12,477.333)"
   id="g478">
            <path
   d="m 0,171.974 c 1.663,-1.42 2.536,-2.264 2.536,-2.264 L -134.448,159.687 C -18.12,0 69.421,126.835 79.335,140.497 v 31.477 z"
   style="fill-rule:nonzero"
   id="path476" />

        </g>

        <g
   transform="matrix(-1.53e-5,-267.211,-267.211,1.53e-5,809.465,764.23)"
   id="g482">
            <path
   d="m 1,-0.586 c 0,0 -0.232,0.058 -0.476,0.421 L 0.5,-0.064 c 0,0 0.6,0.329 -0.076,0.795 0,0 0.084,-0.145 -0.019,-0.534 0,0 -0.274,0.179 -0.265,0.539 0,0 -0.415,-0.345 0.184,-0.871 0,0 0.215,-0.556 0.676,-0.601 z"
   style="fill:url(#_Linear2);fill-rule:nonzero"
   id="path480" />

        </g>

        <g
   transform="translate(677.392,509.61)"
   id="g486">
            <path
   d="m 0,-92.063 c 0,0 43.486,-47.615 86.974,0 0,0 34.17,63.492 0,95.234 0,0 -55.912,44.444 -86.974,0 0,0 -37.275,-34.921 0,-95.234"
   style="fill-rule:nonzero"
   id="path484" />

        </g>

        <g
   transform="translate(727.738,435.209)"
   id="g490">
            <path
   d="m 0,0.002 c 0,18.541 -10.93,33.572 -24.408,33.572 -13.477,0 -24.406,-15.031 -24.406,-33.572 0,-18.541 10.929,-33.574 24.406,-33.574 C -10.93,-33.572 0,-18.539 0,0.002"
   style="fill:#ffffff;fill-rule:nonzero"
   id="path488" />

        </g>

        <g
   transform="translate(483.3,502.984)"
   id="g494">
            <path
   d="m 0,-98.439 c 0,0 74.596,-33.028 94.956,40.691 0,0 21.327,85.926 -61.259,90.776 0,0 -105.31,-20.283 -33.697,-131.467"
   style="fill-rule:nonzero"
   id="path492" />

        </g>

        <g
   transform="translate(520.766,436.428)"
   id="g498">
            <path
   d="m 0,0 c 0,19.119 -11.27,34.627 -25.173,34.627 -13.898,0 -25.171,-15.508 -25.171,-34.627 0,-19.124 11.273,-34.627 25.171,-34.627 C -11.27,-34.627 0,-19.124 0,0"
   style="fill:#ffffff;fill-rule:nonzero"
   id="path496" />

        </g>

        <g
   transform="matrix(-1.53e-5,-239.021,-239.021,1.53e-5,402.161,775.388)"
   id="g502">
            <path
   d="m 0.367,0.129 c -0.731,-0.57 -0.144,-0.84 -0.144,-0.84 0.036,0.32 0.249,0.547 0.249,0.547 0.049,-0.384 0.053,-0.606 0.053,-0.606 0.678,0.514 0.064,0.931 0.064,0.931 0.038,0.104 0.183,0.211 0.317,0.29 L 1,0.77 C 0.376,0.403 0.367,0.129 0.367,0.129 Z"
   style="fill:url(#_Linear3);fill-rule:nonzero"
   id="path500" />

        </g>

    </g>
      </g>
      <g
         aria-label="ferris"
         id="text1555"
         style="font-size:35.3911px;font-family:Roboto;-inkscape-font-specification:Roboto;fill:#444444;stroke-width:0.841411">
        <path
           d="m 150.01192,-36.405674 h -4.47573 v 17.004318 h -2.05642 v -17.004318 h -3.11055 v -1.69352 h 3.11055 v -2.332909 q 0,-2.834053 1.46887,-4.354765 1.48615,-1.520711 4.04371,-1.520711 1.17509,0 2.21194,0.293774 l -0.15552,1.728081 q -0.84676,-0.20737 -1.90089,-0.20737 -1.67624,0 -2.64397,1.05413 -0.96772,1.054129 -0.96772,3.006861 v 2.332909 h 4.47573 z"
           style="font-weight:300;-inkscape-font-specification:'Roboto Light'"
           id="path2517" />
        <path
           d="m 167.15448,-22.373655 q -0.91588,1.365184 -2.523,2.35019 -1.60711,0.967725 -4.11283,0.967725 -3.64625,0 -6.01372,-2.57484 -2.36747,-2.574841 -2.36747,-6.60127 v -0.743075 q 0,-4.320203 2.40203,-6.895044 2.41931,-2.574841 5.61626,-2.574841 3.55985,0 5.47802,2.419314 1.91817,2.402032 1.91817,6.134688 v 1.261499 h -13.34079 v 0.397459 q 0,3.093265 1.76265,5.270647 1.77992,2.160102 4.63125,2.160102 3.30064,0 5.23609,-2.557561 z m -6.99873,-14.308512 q -2.36747,0 -3.9573,1.728081 -1.57256,1.728081 -1.90089,4.562134 h 11.18068 v -0.22465 q -0.0518,-2.350191 -1.38246,-4.199238 -1.31334,-1.866327 -3.94003,-1.866327 z"
           style="font-weight:300;-inkscape-font-specification:'Roboto Light'"
           id="path2519" />
        <path
           d="m 178.83631,-36.474797 q -2.09098,0 -3.38704,1.175095 -1.27878,1.157814 -1.7972,3.006861 v 12.891485 h -2.0737 v -18.697838 h 2.02185 l 0.0519,2.920457 q 0.76035,-1.50343 2.05641,-2.384752 1.31334,-0.881321 3.19695,-0.881321 0.82948,0 1.38247,0.20737 l -0.0691,1.883608 q -0.34561,-0.05184 -0.67395,-0.0864 -0.32833,-0.03456 -0.70851,-0.03456 z"
           style="font-weight:300;-inkscape-font-specification:'Roboto Light'"
           id="path2521" />
        <path
           d="m 190.76007,-36.474797 q -2.09098,0 -3.38704,1.175095 -1.27878,1.157814 -1.79721,3.006861 v 12.891485 h -2.07369 v -18.697838 h 2.02185 l 0.0518,2.920457 q 0.76036,-1.50343 2.05642,-2.384752 1.31334,-0.881321 3.19695,-0.881321 0.82948,0 1.38247,0.20737 l -0.0691,1.883608 q -0.34561,-0.05184 -0.67395,-0.0864 -0.32833,-0.03456 -0.70851,-0.03456 z"
           style="font-weight:300;-inkscape-font-specification:'Roboto Light'"
           id="path2523" />
        <path
           d="m 195.30492,-43.508088 q 0,-1.399745 1.41703,-1.399745 1.4343,0 1.4343,1.399745 0,1.365184 -1.4343,1.365184 -1.41703,0 -1.41703,-1.365184 z m 2.43659,5.408894 v 18.697838 h -2.05641 v -18.697838 z"
           style="font-weight:300;-inkscape-font-specification:'Roboto Light'"
           id="path2525" />
        <path
           d="m 214.59031,-24.17086 q 0,-1.157814 -0.95044,-2.211944 -0.93317,-1.07141 -4.061,-1.728081 -3.12782,-0.656671 -4.82134,-1.797204 -1.69352,-1.140534 -1.69352,-3.456162 0,-2.090979 1.76264,-3.577128 1.77992,-1.503431 4.82135,-1.503431 3.24879,0 5.08056,1.589835 1.83176,1.589834 1.83176,3.991867 h -2.09098 q 0,-1.451588 -1.24421,-2.626683 -1.24422,-1.192376 -3.57713,-1.192376 -2.41932,0 -3.47345,1.036848 -1.05413,1.036849 -1.05413,2.211944 0,1.244219 0.91589,2.090979 0.93316,0.846759 4.07827,1.555273 3.38704,0.777636 4.95959,2.039135 1.58984,1.244219 1.58984,3.473443 0,2.315629 -1.88361,3.767217 -1.86633,1.451588 -5.01144,1.451588 -3.55984,0 -5.44345,-1.693519 -1.88361,-1.7108 -1.88361,-3.905463 h 2.05642 q 0.13824,2.211943 1.81448,3.024142 1.67624,0.812198 3.45616,0.812198 2.35019,0 3.57713,-1.019568 1.24422,-1.019568 1.24422,-2.33291 z"
           style="font-weight:300;-inkscape-font-specification:'Roboto Light'"
           id="path2527" />
      </g>
    </g>
  </g>
</svg>
